<svg id="Layer_1" data-name="Layer 1" xmlns="http://www.w3.org/2000/svg" xmlns:xlink="http://www.w3.org/1999/xlink" viewBox="0 0 512 512"><defs><linearGradient id="New_Gradient_Swatch_1" x1="256" x2="256" y2="512" gradientUnits="userSpaceOnUse"><stop offset="0" stop-color="#ededee"/><stop offset="0.76" stop-color="#cfd0d2"/><stop offset="1" stop-color="#a6a8ab"/></linearGradient><linearGradient id="New_Gradient_Swatch_2" x1="256" y1="419.47" x2="256" y2="92.54" gradientUnits="userSpaceOnUse"><stop offset="0" stop-color="#231f20"/><stop offset="1" stop-color="#6d6e70"/></linearGradient></defs><title>user</title><path d="M256,512c141,0,256-115,256-256S397,0,256,0,0,115,0,256,115,512,256,512Z" fill-rule="evenodd" fill="url(#New_Gradient_Swatch_1)"/><path d="M244.48,92.54a74.83,74.83,0,0,1,40,138,118.57,118.57,0,0,1,78.28,111.57c0,65.45-52.94,77.4-118.23,77.4s-118.23-12-118.23-77.4a118.57,118.57,0,0,1,78.29-111.57,74.82,74.82,0,0,1,39.94-138Z" fill="#fff" fill-rule="evenodd"/><path d="M256,92.54a74.83,74.83,0,0,1,40,138,118.58,118.58,0,0,1,78.28,111.57c0,65.45-52.94,77.4-118.23,77.4s-118.23-12-118.23-77.4a118.57,118.57,0,0,1,78.29-111.57A74.82,74.82,0,0,1,256,92.54Z" fill-rule="evenodd" fill="url(#New_Gradient_Swatch_2)"/></svg>